<svg xmlns="http://www.w3.org/2000/svg" viewBox="0 0 512 512"><defs><radialGradient id="g" cx="30%" cy="20%" r="80%"><stop offset="0" stop-color="#2a1608"/><stop offset="1" stop-color="#07090d"/></radialGradient></defs><rect width="512" height="512" rx="112" fill="url(#g)"/><path d="M96 264c40-56 96-88 160-88s120 32 160 88" fill="none" stroke="#eef1f6" stroke-width="30" stroke-linecap="round"/><path d="M130 300l-26 30M200 326l-12 38M312 326l12 38M382 300l26 30" stroke="#eef1f6" stroke-width="26" stroke-linecap="round"/><path d="M256 92c10 40 50 56 50 100a50 50 0 0 1-100 0c0-26 14-34 20-50 10 14 20 18 30 18-6-24-10-44 0-68z" fill="#ff7a1a"/></svg>
